<?xml version="1.0" standalone="no"?>
<!DOCTYPE svg PUBLIC "-//W3C//DTD SVG 20010904//EN"
 "http://www.w3.org/TR/2001/REC-SVG-20010904/DTD/svg10.dtd">
<svg version="1.0" xmlns="http://www.w3.org/2000/svg"
 width="452.000000pt" height="452.000000pt" viewBox="0 0 452.000000 452.000000"
 preserveAspectRatio="xMidYMid meet">
<metadata>
Created by potrace 1.14, written by Peter Selinger 2001-2017
</metadata>
<g transform="translate(0.000000,452.000000) scale(0.100000,-0.100000)"
fill="#000000" stroke="none">
<path d="M3512 3954 c-56 -25 -129 -94 -138 -131 -4 -13 -11 -24 -18 -24 -52
-6 -69 2 -134 65 -59 58 -71 66 -105 66 -51 0 -87 -35 -87 -86 0 -34 10 -48
123 -163 67 -69 130 -131 140 -139 16 -12 13 -17 -33 -64 l-50 -50 -26 21
c-36 28 -88 36 -137 21 -35 -10 -90 -60 -329 -298 -158 -157 -295 -301 -303
-319 -24 -51 -22 -107 7 -151 l25 -37 -48 -48 -48 -48 -27 26 -27 27 37 37 36
37 -64 63 -65 62 -21 -21 -22 -22 -30 29 c-23 22 -174 174 -197 199 -3 2 15
25 39 49 l44 45 -64 65 -64 65 -61 -59 -60 -60 -25 28 c-73 79 -122 90 -172
41 -43 -43 -35 -87 27 -150 l45 -46 -55 -54 c-30 -30 -55 -58 -55 -63 0 -5 28
-36 61 -69 l62 -60 45 45 46 46 113 -114 c62 -63 113 -119 113 -124 0 -24 -22
-18 -57 14 -21 20 -51 43 -67 52 -38 20 -116 19 -158 -3 -18 -9 -218 -202
-445 -429 -426 -427 -433 -434 -433 -513 0 -33 27 -93 55 -122 l25 -26 -235
-234 c-129 -129 -235 -240 -235 -246 0 -6 7 -17 15 -24 9 -7 14 -17 13 -21 -2
-5 -53 -59 -113 -121 -94 -96 -203 -240 -270 -357 -4 -8 12 -1 36 16 24 16 83
55 131 87 54 35 131 101 201 171 112 113 115 114 132 95 10 -11 22 -20 26 -20
4 0 114 106 244 236 l236 237 28 -27 c53 -51 145 -65 208 -33 42 23 844 828
859 864 31 73 12 152 -52 216 l-37 38 26 27 27 27 530 -530 530 -530 62 63
c56 55 62 64 50 82 -6 11 -12 34 -12 52 0 29 41 73 432 465 237 238 445 438
461 444 23 10 34 9 60 -3 l32 -16 64 63 63 62 -33 30 -32 31 26 32 c35 41 34
78 -2 124 -94 118 -165 147 -219 89 l-23 -25 -254 255 -254 254 42 13 c59 17
116 62 152 118 l30 48 95 0 95 -1 3 91 3 91 -83 0 c-46 1 -90 1 -100 2 -9 1
-28 21 -42 45 -68 115 -213 163 -334 110z m146 -169 c43 -13 60 -99 28 -134
-52 -58 -149 -34 -157 39 -4 36 9 67 38 90 24 19 45 20 91 5z m-55 -553 l157
-157 -49 -49 -49 -49 -29 20 c-43 31 -70 36 -124 23 -47 -11 -67 -29 -340
-301 -182 -181 -295 -301 -304 -323 -25 -60 -15 -135 23 -164 15 -11 11 -18
-35 -64 l-51 -51 -162 163 -162 162 50 50 c47 47 52 49 67 34 44 -43 109 -50
172 -17 21 10 165 147 319 303 234 235 284 290 294 325 15 50 7 101 -21 137
l-21 27 43 44 c24 25 49 45 54 45 6 0 81 -71 168 -158z m-433 -25 l28 -24
-246 -246 c-136 -136 -250 -249 -253 -252 -3 -2 -29 19 -58 49 l-52 53 251
251 252 251 24 -29 c14 -16 38 -40 54 -53z m814 -356 c77 -77 88 -92 77 -105
-8 -9 -223 -225 -479 -481 l-465 -465 -41 43 c-23 23 -64 66 -93 94 l-52 50
49 51 c44 46 51 50 64 36 41 -40 118 -49 173 -21 44 24 593 579 610 617 19 45
12 113 -16 150 l-21 29 47 45 c25 25 49 46 52 46 4 0 46 -40 95 -89z m-386
-73 l51 -52 -250 -250 -250 -249 -55 54 -54 54 247 247 c136 137 251 248 254
248 4 0 29 -23 57 -52z m-1670 -403 l113 -115 -384 -385 c-211 -212 -388 -385
-392 -385 -9 0 -225 218 -225 228 0 8 762 772 770 772 3 0 56 -52 118 -115z"/>
</g>
</svg>
